HIERARCHY
ROOT Hips
{
  OFFSET 5.72205e-005 65.662 3.42586
  CHANNELS 6 Xposition Yposition Zposition Zrotation Xrotation Yrotation
  JOINT Chest
  {
    OFFSET 0 8.7983 -4.7612
    CHANNELS 6 Xposition Yposition Zposition Zrotation Xrotation Yrotation
    JOINT Chest2
    {
      OFFSET 0 8.0291 0.4195
      CHANNELS 6 Xposition Yposition Zposition Zrotation Xrotation Yrotation
      JOINT Chest3
      {
        OFFSET 0 9.9351 -2.2114
        CHANNELS 6 Xposition Yposition Zposition Zrotation Xrotation Yrotation
        JOINT Neck
        {
          OFFSET 0 22.3885 -0.4656
          CHANNELS 6 Xposition Yposition Zposition Zrotation Xrotation Yrotation
          JOINT Head
          {
            OFFSET -0.0001 12.643 3.4389
            CHANNELS 6 Xposition Yposition Zposition Zrotation Xrotation Yrotation
            End Site
            {
              OFFSET 0.0001 17.6655 0.5274
            }
          }
        }
        JOINT LeftCollar
        {
          OFFSET 2.2603 21.606 7.4023
          CHANNELS 6 Xposition Yposition Zposition Zrotation Xrotation Yrotation
          JOINT LeftShoulder
          {
            OFFSET 13.5163 -1.1332 -5.0146
            CHANNELS 6 Xposition Yposition Zposition Zrotation Xrotation Yrotation
            JOINT LeftElbow
            {
              OFFSET -0.0995 -28.05 -0.2431
              CHANNELS 6 Xposition Yposition Zposition Zrotation Xrotation Yrotation
              JOINT LeftWrist
              {
                OFFSET 0.0679 -23.3996 -0.1402
                CHANNELS 6 Xposition Yposition Zposition Zrotation Xrotation Yrotation
                JOINT LeftFinger1
                {
                  OFFSET 0.7932 -9.069 2.5189
                  CHANNELS 6 Xposition Yposition Zposition Zrotation Xrotation Yrotation
                  JOINT LeftFinger11
                  {
                    OFFSET -0.8272 -3.3923 0.5977
                    CHANNELS 6 Xposition Yposition Zposition Zrotation Xrotation Yrotation
                    JOINT LeftFinger12
                    {
                      OFFSET -0.5649 -2.3158 0.4082
                      CHANNELS 6 Xposition Yposition Zposition Zrotation Xrotation Yrotation
                      End Site
                      {
                        OFFSET -0.4919 -1.6479 0.2673
                      }
                    }
                  }
                }
                JOINT LeftFinger2
                {
                  OFFSET 0.9159 -9.2044 0.2193
                  CHANNELS 6 Xposition Yposition Zposition Zrotation Xrotation Yrotation
                  JOINT LeftFinger21
                  {
                    OFFSET 0.0117 -4.1944 -0.0248
                    CHANNELS 6 Xposition Yposition Zposition Zrotation Xrotation Yrotation
                    JOINT LeftFinger22
                    {
                      OFFSET 0.0071 -2.3249 -0.0142
                      CHANNELS 6 Xposition Yposition Zposition Zrotation Xrotation Yrotation
                      End Site
                      {
                        OFFSET -0.1475 -2.0882 0.0028
                      }
                    }
                  }
                }
                JOINT LeftFinger3
                {
                  OFFSET 0.6113 -8.7231 -2.0637
                  CHANNELS 6 Xposition Yposition Zposition Zrotation Xrotation Yrotation
                  JOINT LeftFinger31
                  {
                    OFFSET -0.1927 -3.8059 -0.2383
                    CHANNELS 6 Xposition Yposition Zposition Zrotation Xrotation Yrotation
                    JOINT LeftFinger32
                    {
                      OFFSET -0.1091 -2.1688 -0.1362
                      CHANNELS 6 Xposition Yposition Zposition Zrotation Xrotation Yrotation
                      End Site
                      {
                        OFFSET -0.2358 -1.9176 -0.0906
                      }
                    }
                  }
                }
                JOINT LeftFinger4
                {
                  OFFSET -0.6151 -8.0947 -3.5641
                  CHANNELS 6 Xposition Yposition Zposition Zrotation Xrotation Yrotation
                  JOINT LeftFinger41
                  {
                    OFFSET -0.4882 -2.341 -0.6462
                    CHANNELS 6 Xposition Yposition Zposition Zrotation Xrotation Yrotation
                    JOINT LeftFinger42
                    {
                      OFFSET -0.3575 -1.7167 -0.4742
                      CHANNELS 6 Xposition Yposition Zposition Zrotation Xrotation Yrotation
                      End Site
                      {
                        OFFSET -0.4187 -1.5237 -0.3496
                      }
                    }
                  }
                }
                JOINT LeftFinger0
                {
                  OFFSET -1.42 -1.8761 1.4223
                  CHANNELS 6 Xposition Yposition Zposition Zrotation Xrotation Yrotation
                  JOINT LeftFinger01
                  {
                    OFFSET -1.1471 -3.4929 2.6334
                    CHANNELS 6 Xposition Yposition Zposition Zrotation Xrotation Yrotation
                    JOINT LeftFinger02
                    {
                      OFFSET -0.823 -2.3 1.6571
                      CHANNELS 6 Xposition Yposition Zposition Zrotation Xrotation Yrotation
                      End Site
                      {
                        OFFSET -0.5822 -1.6914 1.1582
                      }
                    }
                  }
                }
              }
            }
          }
        }
        JOINT RightCollar
        {
          OFFSET -2.2603 21.606 7.4023
          CHANNELS 6 Xposition Yposition Zposition Zrotation Xrotation Yrotation
          JOINT RightShoulder
          {
            OFFSET -13.5187 -1.1334 -5.0155
            CHANNELS 6 Xposition Yposition Zposition Zrotation Xrotation Yrotation
            JOINT RightElbow
            {
              OFFSET 0.0994 -28.0499 -0.2431
              CHANNELS 6 Xposition Yposition Zposition Zrotation Xrotation Yrotation
              JOINT RightWrist
              {
                OFFSET -0.0679 -23.3996 -0.1402
                CHANNELS 6 Xposition Yposition Zposition Zrotation Xrotation Yrotation
                JOINT RightFinger1
                {
                  OFFSET -0.7932 -9.0691 2.5189
                  CHANNELS 6 Xposition Yposition Zposition Zrotation Xrotation Yrotation
                  JOINT RightFinger11
                  {
                    OFFSET 0.8272 -3.3923 0.5977
                    CHANNELS 6 Xposition Yposition Zposition Zrotation Xrotation Yrotation
                    JOINT RightFinger12
                    {
                      OFFSET 0.565 -2.3158 0.4082
                      CHANNELS 6 Xposition Yposition Zposition Zrotation Xrotation Yrotation
                      End Site
                      {
                        OFFSET 0.4919 -1.6479 0.2673
                      }
                    }
                  }
                }
                JOINT RightFinger2
                {
                  OFFSET -0.916 -9.2044 0.2193
                  CHANNELS 6 Xposition Yposition Zposition Zrotation Xrotation Yrotation
                  JOINT RightFinger21
                  {
                    OFFSET -0.0117 -4.1944 -0.0248
                    CHANNELS 6 Xposition Yposition Zposition Zrotation Xrotation Yrotation
                    JOINT RightFinger22
                    {
                      OFFSET -0.0071 -2.3249 -0.0142
                      CHANNELS 6 Xposition Yposition Zposition Zrotation Xrotation Yrotation
                      End Site
                      {
                        OFFSET 0.1475 -2.0882 0.0028
                      }
                    }
                  }
                }
                JOINT RightFinger3
                {
                  OFFSET -0.6113 -8.7231 -2.0637
                  CHANNELS 6 Xposition Yposition Zposition Zrotation Xrotation Yrotation
                  JOINT RightFinger31
                  {
                    OFFSET 0.1927 -3.8059 -0.2383
                    CHANNELS 6 Xposition Yposition Zposition Zrotation Xrotation Yrotation
                    JOINT RightFinger32
                    {
                      OFFSET 0.1091 -2.1688 -0.1362
                      CHANNELS 6 Xposition Yposition Zposition Zrotation Xrotation Yrotation
                      End Site
                      {
                        OFFSET 0.2358 -1.9176 -0.0906
                      }
                    }
                  }
                }
                JOINT RightFinger4
                {
                  OFFSET 0.6151 -8.0947 -3.564
                  CHANNELS 6 Xposition Yposition Zposition Zrotation Xrotation Yrotation
                  JOINT RightFinger41
                  {
                    OFFSET 0.4882 -2.341 -0.6462
                    CHANNELS 6 Xposition Yposition Zposition Zrotation Xrotation Yrotation
                    JOINT RightFinger42
                    {
                      OFFSET 0.3574 -1.7166 -0.4742
                      CHANNELS 6 Xposition Yposition Zposition Zrotation Xrotation Yrotation
                      End Site
                      {
                        OFFSET 0.4187 -1.5237 -0.3496
                      }
                    }
                  }
                }
                JOINT RightFinger0
                {
                  OFFSET 1.4199 -1.8761 1.4221
                  CHANNELS 6 Xposition Yposition Zposition Zrotation Xrotation Yrotation
                  JOINT RightFinger01
                  {
                    OFFSET 1.1472 -3.4929 2.6336
                    CHANNELS 6 Xposition Yposition Zposition Zrotation Xrotation Yrotation
                    JOINT RightFinger02
                    {
                      OFFSET 0.8229 -2.3 1.6571
                      CHANNELS 6 Xposition Yposition Zposition Zrotation Xrotation Yrotation
                      End Site
                      {
                        OFFSET 0.5822 -1.6914 1.1582
                      }
                    }
                  }
                }
              }
            }
          }
        }
      }
    }
  }
  JOINT RightHip
  {
    OFFSET -9.412 3.9771 -0.7758
    CHANNELS 6 Xposition Yposition Zposition Zrotation Xrotation Yrotation
    JOINT RightKnee
    {
      OFFSET -0.7531 -40.938 0
      CHANNELS 6 Xposition Yposition Zposition Zrotation Xrotation Yrotation
      JOINT RightAnkle
      {
        OFFSET 0 -40.1986 0
        CHANNELS 6 Xposition Yposition Zposition Zrotation Xrotation Yrotation
        JOINT RightToe
        {
          OFFSET 0 -4.4182 9.239
          CHANNELS 6 Xposition Yposition Zposition Zrotation Xrotation Yrotation
          End Site
          {
            OFFSET 0 0 6.1981
          }
        }
      }
    }
  }
  JOINT LeftHip
  {
    OFFSET 9.4119 3.9773 -0.7758
    CHANNELS 6 Xposition Yposition Zposition Zrotation Xrotation Yrotation
    JOINT LeftKnee
    {
      OFFSET 0.7532 -40.9383 0
      CHANNELS 6 Xposition Yposition Zposition Zrotation Xrotation Yrotation
      JOINT LeftAnkle
      {
        OFFSET 0 -40.1986 0
        CHANNELS 6 Xposition Yposition Zposition Zrotation Xrotation Yrotation
        JOINT LeftToe
        {
          OFFSET 0 -4.4182 9.239
          CHANNELS 6 Xposition Yposition Zposition Zrotation Xrotation Yrotation
          End Site
          {
            OFFSET 0 0 6.1981
          }
        }
      }
    }
  }
}
MOTION
Frames:	4
Frame Time:	0.0333333
5.72205e-005 65.662 3.42586 0 0 -0 0 8.7983 -4.7612 0 0 -0 0 8.0291 0.4195 0 0 -0 0 9.9351 -2.2114 0 0 -0 0 22.3885 -0.4656 0 0 -0 -0.0001 12.643 3.4389 0 0 -0 2.2603 21.606 7.4023 0 0 -12.5014 13.5163 -1.1332 -5.0146 88.1196 14.2451 10.6914 -0.0995 -28.05 -0.2431 -0.00160068 -0.00239207 0.000740045 0.0679 -23.3996 -0.1402 -8.4365e-005 7.00714e-005 -9.52055e-007 0.7932 -9.069 2.5189 9.93923e-017 -1.98785e-016 -1.59028e-015 -0.8272 -3.3923 0.5977 9.93923e-017 -5.96354e-016 -1.59028e-015 -0.5649 -2.3158 0.4082 -9.93923e-017 -5.96354e-016 -1.59028e-015 0.9159 -9.2044 0.2193 9.93923e-017 -1.98785e-016 -1.59028e-015 0.0117 -4.1944 -0.0248 -0.0128176 0.00232552 8.52707e-005 0.0071 -2.3249 -0.0142 9.93923e-017 5.96354e-016 -0 0.6113 -8.7231 -2.0637 9.93923e-017 -1.98785e-016 -1.59028e-015 -0.1927 -3.8059 -0.2383 -0.0160551 0.00299681 0.000857156 -0.1091 -2.1688 -0.1362 -2.48481e-016 0 3.18055e-015 -0.6151 -8.0947 -3.5641 9.93923e-017 -1.98785e-016 -1.59028e-015 -0.4882 -2.341 -0.6462 -0.0125865 0.0031206 0.00282719 -0.3575 -1.7167 -0.4742 0 1.98785e-016 -0 -1.42 -1.8761 1.4223 9.93923e-017 -1.98785e-016 -1.59028e-015 -1.1471 -3.4929 2.6334 9.93923e-017 -5.96354e-016 -1.59028e-015 -0.823 -2.3 1.6571 -9.93923e-017 -5.96354e-016 -1.59028e-015 -2.2603 21.606 7.4023 -0.865644 0.16582 7.03859 -13.5187 -1.1334 -5.0155 -88.0329 10.2057 -10.5567 0.0994 -28.0499 -0.2431 0.0015593 -0.00248883 -0.000788628 -0.0679 -23.3996 -0.1402 7.87605e-005 4.10553e-005 1.24965e-005 -0.7932 -9.0691 2.5189 -3.97569e-016 -7.95139e-016 3.18055e-015 0.8272 -3.3923 0.5977 -1.98785e-016 -3.97569e-016 3.18055e-015 0.565 -2.3158 0.4082 -1.98785e-016 0 3.18055e-015 -0.916 -9.2044 0.2193 -3.97569e-016 -7.95139e-016 3.18055e-015 -0.0117 -4.1944 -0.0248 0.0129473 0.00231697 -8.70038e-005 -0.0071 -2.3249 -0.0142 9.93923e-017 -7.95139e-016 1.59028e-015 -0.6113 -8.7231 -2.0637 -3.97569e-016 -7.95139e-016 3.18055e-015 0.1927 -3.8059 -0.2383 0.0163314 0.00303369 -0.000872333 0.1091 -2.1688 -0.1362 3.97569e-016 7.95139e-016 -3.18055e-015 0.6151 -8.0947 -3.564 -3.97569e-016 -7.95139e-016 3.18055e-015 0.4882 -2.341 -0.6462 0.0145763 0.00367772 -0.00326275 0.3574 -1.7166 -0.4742 9.93923e-017 -3.97569e-016 -0 1.4199 -1.8761 1.4221 -3.97569e-016 -7.95139e-016 3.18055e-015 1.1472 -3.4929 2.6336 -1.98785e-016 -3.97569e-016 3.18055e-015 0.8229 -2.3 1.6571 -1.98785e-016 0 3.18055e-015 -9.412 3.9771 -0.7758 3.42482 1.32465 -0.0626183 -0.7531 -40.938 0 0.000117508 0.717283 0.000978199 0 -40.1986 0 -3.4257 -2.04197 -0.0604716 8.88178e-016 -4.4182 9.239 6.47761e-025 0 -0 9.4119 3.9773 -0.7758 -3.42483 1.34017 0.0627307 0.7532 -40.9383 -2.22045e-016 -0.000193936 0.682302 -0.0013703 -8.88179e-016 -40.1986 0 3.42574 -2.02253 0.0595886 -8.88178e-016 -4.4182 9.239 -8.45714e-024 0 -7.40531e-025 
-3.99485 44.3455 12.2709 -33.3353 -33.3815 -0.00233732 3.55271e-015 8.7983 -4.7612 0.195123 0.209975 -0.136949 -3.55271e-015 8.0291 0.4195 0.390719 0.419468 -0.274606 0 9.9351 -2.2114 0.390726 0.419474 -0.274609 -7.10543e-015 22.3885 -0.4656 3.29027 -11.0034 1.73149 -0.0001 12.643 3.4389 8.05514 5.1596 -2.06291 2.2603 21.606 7.4023 -3.00646 -3.30225 -11.5121 13.5163 -1.1332 -5.0146 78.1404 -11.2827 18.813 -0.0995 -28.05 -0.2431 -29.4501 -0.498684 -2.51716 0.0679 -23.3996 -0.1402 -12.3133 -0.951824 -1.92939 0.7932 -9.069 2.5189 -3.18055e-015 -3.18055e-015 1.59028e-015 -0.8272 -3.3923 0.5977 -1.59028e-015 0 1.59028e-015 -0.5649 -2.3158 0.4082 4.41391e-032 3.18055e-015 -7.95139e-016 0.9159 -9.2044 0.2193 -3.18055e-015 -3.18055e-015 1.59028e-015 0.0117 -4.1944 -0.0248 -0.0128301 0.00232844 7.85437e-005 0.0071 -2.3249 -0.0142 7.90386e-006 -6.07809e-007 -1.67026e-006 0.6113 -8.7231 -2.0637 -3.18055e-015 -3.18055e-015 1.59028e-015 -0.1927 -3.8059 -0.2383 -0.016072 0.00300173 0.000860199 -0.1091 -2.1688 -0.1362 -1.59028e-015 -3.18055e-015 -1.59028e-015 -0.6151 -8.0947 -3.5641 -3.18055e-015 -3.18055e-015 1.59028e-015 -0.4882 -2.341 -0.6462 -0.0125897 0.00312131 0.00282735 -0.3575 -1.7167 -0.4742 -1.59028e-015 0 -0 -1.42 -1.8761 1.4223 -3.18055e-015 -3.18055e-015 1.59028e-015 -1.1471 -3.4929 2.6334 -1.59028e-015 0 1.59028e-015 -0.823 -2.3 1.6571 4.41391e-032 3.18055e-015 -7.95139e-016 -2.2603 21.606 7.4023 -5.54511 -4.59112 1.30112 -13.5187 -1.1334 -5.0155 -64.3528 -9.67185 -7.32894 0.0994 -28.0499 -0.2431 27.4211 -22.039 3.53083 -0.0679 -23.3996 -0.1402 16.9508 -1.81806 -3.38155 -0.7932 -9.0691 2.5189 -3.67858e-006 -4.75171e-006 9.41366e-006 0.8272 -3.3923 0.5977 -1.55816e-006 9.23399e-007 -6.5096e-007 0.565 -2.3158 0.4082 3.67859e-006 4.98455e-006 -9.41366e-006 -0.916 -9.2044 0.2193 -3.67858e-006 -4.75171e-006 9.41366e-006 -0.0117 -4.1944 -0.0248 0.0129866 0.00234029 -9.00301e-005 -0.0071 -2.3249 -0.0142 -3.18055e-015 6.36111e-015 -4.37326e-015 -0.6113 -8.7231 -2.0637 -3.67858e-006 -4.75171e-006 9.41366e-006 0.1927 -3.8059 -0.2383 0.0164226 0.00304769 -0.000876868 0.1091 -2.1688 -0.1362 -1.5582e-006 1.78822e-006 -6.51039e-007 0.6151 -8.0947 -3.564 -3.67858e-006 -4.75171e-006 9.41366e-006 0.4882 -2.341 -0.6462 0.0144745 0.00365154 -0.00324391 0.3574 -1.7166 -0.4742 -2.95678e-006 5.38996e-006 -2.09926e-007 1.4199 -1.8761 1.4221 -3.67858e-006 -4.75171e-006 9.41366e-006 1.1472 -3.4929 2.6336 -1.55816e-006 9.23399e-007 -6.5096e-007 0.8229 -2.3 1.6571 3.67859e-006 4.98455e-006 -9.41366e-006 -9.412 3.9771 -0.7758 -3.5902 -12.0222 -5.49407 -0.7531 -40.938 0 12.188 39.2685 -29.8782 0 -40.1986 -7.10543e-015 0.719898 2.83284 2.04268 3.55271e-015 -4.4182 9.239 -3.18078e-006 -2.82846e-006 -2.23761e-006 9.4119 3.9773 -0.7758 -1.4267 -11.9935 4.15016 0.7532 -40.9383 0 -0.522172 19.4335 -0.761897 -3.55271e-015 -40.1986 -7.10543e-015 2.15903 11.1847 -0.810025 -3.55271e-015 -4.4182 9.239 5.62556e-006 -1.10904e-006 -5.08349e-007 
-1.43432 23.2387 18.4607 -66.677 -66.7629 -0.00988509 0 8.7983 -4.7612 0.393592 0.415641 -0.236806 -3.55271e-015 8.0291 0.4195 0.788943 0.829682 -0.476508 0 9.9351 -2.2114 0.788921 0.829663 -0.47651 -3.55271e-015 22.3885 -0.4656 7.29305 -21.9755 3.66568 -0.0001 12.643 3.4389 16.4871 10.299 -4.17653 2.2603 21.606 7.4023 -5.89791 -6.60114 -10.5132 13.5163 -1.1332 -5.0146 70.0993 -37.1686 27.525 -0.0995 -28.05 -0.2431 -58.6838 -1.90566 -2.54751 0.0679 -23.3996 -0.1402 -24.6158 -1.92707 -3.40005 0.7932 -9.069 2.5189 3.18055e-015 9.54166e-015 3.18055e-015 -0.8272 -3.3923 0.5977 -6.36111e-015 6.36111e-015 4.77083e-015 -0.5649 -2.3158 0.4082 8.82781e-032 3.18055e-015 -1.59028e-015 0.9159 -9.2044 0.2193 3.18055e-015 9.54166e-015 3.18055e-015 0.0117 -4.1944 -0.0248 -0.0128236 0.00231911 8.0957e-005 0.0071 -2.3249 -0.0142 -9.54166e-015 3.18055e-015 -4.77083e-015 0.6113 -8.7231 -2.0637 3.18055e-015 9.54166e-015 3.18055e-015 -0.1927 -3.8059 -0.2383 -0.0160352 0.00299736 0.000861099 -0.1091 -2.1688 -0.1362 3.18055e-015 3.18055e-015 -4.77083e-015 -0.6151 -8.0947 -3.5641 3.18055e-015 9.54166e-015 3.18055e-015 -0.4882 -2.341 -0.6462 -0.0126272 0.00312459 0.00283372 -0.3575 -1.7167 -0.4742 3.18055e-015 3.18055e-015 1.59028e-015 -1.42 -1.8761 1.4223 3.18055e-015 9.54166e-015 3.18055e-015 -1.1471 -3.4929 2.6334 -6.36111e-015 6.36111e-015 4.77083e-015 -0.823 -2.3 1.6571 8.82781e-032 3.18055e-015 -1.59028e-015 -2.2603 21.606 7.4023 -11.1841 -9.20562 -4.55046 -13.5187 -1.1334 -5.0155 -42.636 -30.5816 -4.53496 0.0994 -28.0499 -0.2431 55.6244 -44.2461 7.57268 -0.0679 -23.3996 -0.1402 33.8885 -3.64056 -7.58497 -0.7932 -9.0691 2.5189 8.22214e-006 -1.4897e-007 1.16709e-006 0.8272 -3.3923 0.5977 4.7971e-006 9.27112e-007 -1.77335e-006 0.565 -2.3158 0.4082 -9.81003e-006 -1.96623e-006 -4.6149e-006 -0.916 -9.2044 0.2193 8.22214e-006 -1.4897e-007 1.16709e-006 -0.0117 -4.1944 -0.0248 0.0129377 0.00231742 -9.16404e-005 -0.0071 -2.3249 -0.0142 -7.95139e-015 6.36111e-015 -3.18055e-015 -0.6113 -8.7231 -2.0637 8.22214e-006 -1.4897e-007 1.16709e-006 0.1927 -3.8059 -0.2383 0.0163716 0.00304239 -0.000879969 0.1091 -2.1688 -0.1362 -4.77083e-015 6.36111e-015 6.36111e-015 0.6151 -8.0947 -3.564 8.22214e-006 -1.4897e-007 1.16709e-006 0.4882 -2.341 -0.6462 0.0145671 0.00367457 -0.00326381 0.3574 -1.7166 -0.4742 5.26336e-006 2.6646e-006 2.43312e-006 1.4199 -1.8761 1.4221 8.22214e-006 -1.4897e-007 1.16709e-006 1.1472 -3.4929 2.6336 4.7971e-006 9.27112e-007 -1.77335e-006 0.8229 -2.3 1.6571 -9.81003e-006 -1.96623e-006 -4.6149e-006 -9.412 3.9771 -0.7758 -11.2894 -24.278 -10.6657 -0.7531 -40.938 -1.77636e-015 63.4478 44.9997 -82.6681 -1.77636e-015 -40.1986 0 4.01118 10.0139 4.71665 3.55271e-015 -4.4182 9.239 -2.38963e-006 -6.64632e-006 -1.13629e-006 9.4119 3.9773 -0.7758 3.33298 -28.1487 9.19364 0.7532 -40.9383 1.77636e-015 -0.228579 43.8285 -1.89055 0 -40.1986 7.10543e-015 1.53099 21.842 -1.86832 0 -4.4182 9.239 -1.04362e-015 9.54166e-015 -7.45443e-016 
2.41739 5.04108 20.4877 161.599 -89.9945 -108.399 0 8.7983 -4.7612 0.529377 0.518494 -0.282295 0 8.0291 0.4195 1.06134 1.03435 -0.569358 0 9.9351 -2.2114 1.06136 1.03433 -0.569349 0 22.3885 -0.4656 10.3603 -29.5968 5.15688 -0.0001 12.643 3.4389 22.6971 13.8815 -5.73245 2.2603 21.606 7.4023 -7.87154 -8.78505 -9.81761 13.5163 -1.1332 -5.0146 66.7592 -55.348 35.3416 -0.0995 -28.05 -0.2431 -78.7393 -4.03278 -1.48909 0.0679 -23.3996 -0.1402 -33.2 -2.67912 -4.16368 0.7932 -9.069 2.5189 3.97569e-016 -3.18055e-015 -0 -0.8272 -3.3923 0.5977 -8.82781e-032 -3.18055e-015 -1.59028e-015 -0.5649 -2.3158 0.4082 -1.98785e-015 -3.18055e-015 -1.59028e-015 0.9159 -9.2044 0.2193 3.97569e-016 -3.18055e-015 -0 0.0117 -4.1944 -0.0248 -0.0128506 0.00233087 8.8353e-005 0.0071 -2.3249 -0.0142 7.95139e-016 0 -3.18055e-015 0.6113 -8.7231 -2.0637 3.97569e-016 -3.18055e-015 -0 -0.1927 -3.8059 -0.2383 -0.0160012 0.00298531 0.000856381 -0.1091 -2.1688 -0.1362 3.97569e-016 3.18055e-015 -0 -0.6151 -8.0947 -3.5641 3.97569e-016 -3.18055e-015 -0 -0.4882 -2.341 -0.6462 -0.0126035 0.00312743 0.002832 -0.3575 -1.7167 -0.4742 -3.97569e-016 -3.18055e-015 3.18055e-015 -1.42 -1.8761 1.4223 3.97569e-016 -3.18055e-015 -0 -1.1471 -3.4929 2.6334 -8.82781e-032 -3.18055e-015 -1.59028e-015 -0.823 -2.3 1.6571 -1.98785e-015 -3.18055e-015 -1.59028e-015 -2.2603 21.606 7.4023 -15.7029 -12.171 -8.81765 -13.5187 -1.1334 -5.0155 -28.897 -45.6032 -3.45295 0.0994 -28.0499 -0.2431 76.5575 -60.2957 11.9777 -0.0679 -23.3996 -0.1402 45.6842 -5.05554 -10.9699 -0.7932 -9.0691 2.5189 -5.96354e-016 0 -2.48481e-016 0.8272 -3.3923 0.5977 -2.60905e-016 3.18055e-015 4.96962e-017 0.565 -2.3158 0.4082 -1.14301e-015 0 1.49089e-016 -0.916 -9.2044 0.2193 -5.96354e-016 0 -2.48481e-016 -0.0117 -4.1944 -0.0248 0.0129285 0.00231469 -8.99459e-005 -0.0071 -2.3249 -0.0142 8.19987e-016 3.18055e-015 3.47873e-016 -0.6113 -8.7231 -2.0637 -5.96354e-016 0 -2.48481e-016 0.1927 -3.8059 -0.2383 0.0162862 0.00303198 -0.000869695 0.1091 -2.1688 -0.1362 4.96962e-016 -3.18055e-015 1.49089e-016 0.6151 -8.0947 -3.564 -5.96354e-016 0 -2.48481e-016 0.4882 -2.341 -0.6462 0.0146187 0.00369245 -0.00327345 0.3574 -1.7166 -0.4742 1.11816e-016 -6.36111e-015 -1.98785e-016 1.4199 -1.8761 1.4221 -5.96354e-016 0 -2.48481e-016 1.1472 -3.4929 2.6336 -2.60905e-016 3.18055e-015 4.96962e-017 0.8229 -2.3 1.6571 -1.14301e-015 0 1.49089e-016 -9.412 3.9771 -0.7758 -18.5425 -34.0809 -14.6088 -0.7531 -40.938 -9.76996e-015 92.8564 28.5573 -103.566 1.77636e-015 -40.1986 7.10543e-015 5.76188 14.8976 7.62636 -3.55271e-015 -4.4182 9.239 4.94481e-006 -5.59605e-007 -1.23855e-007 9.4119 3.9773 -0.7758 8.22077 -38.5877 13.9427 0.7532 -40.9383 3.55271e-015 1.70602 58.687 -3.96917 8.88178e-016 -40.1986 0 1.54578 30.7564 -2.77939 8.88178e-016 -4.4182 9.239 1.01446e-005 -1.29094e-006 4.8584e-006 
